<svg width="200" height="200" viewBox="0 0 200 200" fill="none" xmlns="http://www.w3.org/2000/svg">
<rect width="200" height="200" fill="url(#paint0_radial_1_61)"/>
<path d="M100.5 74.1903C106.648 74.1903 111.632 69.2063 111.632 63.0582C111.632 56.9102 106.648 51.9261 100.5 51.9261C94.3519 51.9261 89.3679 56.9102 89.3679 63.0582C89.3679 69.2063 94.3519 74.1903 100.5 74.1903Z" fill="white"/>
<path d="M100.5 94.8447C97.4417 94.8447 94.9623 92.3654 94.9623 89.3071C94.9623 86.2488 97.4417 83.7694 100.5 83.7694C106.033 83.7694 111.235 81.6147 115.147 77.7027C119.059 73.7907 121.213 68.5891 121.213 63.0559C121.213 59.984 120.56 57.0301 119.268 54.276C117.969 51.5061 119.161 48.2094 121.931 46.9107C124.701 45.6119 127.998 46.8039 129.296 49.5739C131.283 53.8106 132.291 58.347 132.291 63.0559C132.291 67.3449 131.449 71.5089 129.791 75.43C128.191 79.2149 125.9 82.616 122.982 85.5336C120.065 88.4511 116.666 90.742 112.879 92.3427C108.953 94.0047 104.789 94.8447 100.5 94.8447Z" fill="white"/>
<path d="M100.5 115.558C97.4417 115.558 94.9623 113.079 94.9623 110.021C94.9623 106.962 97.4417 104.483 100.5 104.483C106.094 104.483 111.519 103.389 116.623 101.229C121.554 99.1427 125.986 96.1548 129.791 92.3495C133.597 88.5442 136.585 84.1123 138.671 79.1808C140.83 74.0768 141.925 68.6526 141.925 63.0582C141.925 59.7343 141.532 56.4307 140.753 53.2339C140.031 50.2619 141.854 47.2671 144.826 46.5451C147.798 45.8231 150.793 47.6463 151.515 50.6183C152.501 54.6688 153 58.8533 153 63.0582C153 70.1443 151.61 77.0193 148.872 83.4947C146.227 89.7476 142.442 95.3601 137.624 100.18C132.804 105.001 127.192 108.785 120.939 111.428C114.461 114.169 107.586 115.558 100.5 115.558Z" fill="white"/>
<path d="M100.5 147.402C106.648 147.402 111.632 142.418 111.632 136.269C111.632 130.121 106.648 125.137 100.5 125.137C94.3519 125.137 89.3679 130.121 89.3679 136.269C89.3679 142.418 94.3519 147.402 100.5 147.402Z" fill="white"/>
<path d="M124.276 152.941C123.488 152.941 122.689 152.773 121.929 152.417C119.159 151.118 117.967 147.822 119.265 145.052C120.557 142.298 121.211 139.344 121.211 136.272C121.211 130.739 119.057 125.537 115.145 121.625C111.233 117.713 106.031 115.558 100.498 115.558C97.4394 115.558 94.9601 113.079 94.9601 110.021C94.9601 106.962 97.4394 104.483 100.498 104.483C104.787 104.483 108.951 105.325 112.872 106.983C116.659 108.583 120.058 110.874 122.975 113.792C125.893 116.709 128.184 120.108 129.784 123.895C131.444 127.819 132.284 131.981 132.284 136.269C132.284 140.978 131.276 145.515 129.29 149.751C128.354 151.761 126.358 152.941 124.276 152.941Z" fill="white"/>
<path d="M146.141 152.941C145.707 152.941 145.267 152.889 144.829 152.783C141.857 152.06 140.033 149.066 140.755 146.094C141.532 142.899 141.925 139.593 141.925 136.269C141.925 130.675 140.83 125.251 138.671 120.147C136.585 115.215 133.597 110.783 129.791 106.978C125.986 103.173 121.554 100.185 116.623 98.0983C111.519 95.9391 106.094 94.8447 100.5 94.8447C97.4417 94.8447 94.9623 92.3654 94.9623 89.3071C94.9623 86.2488 97.4417 83.7694 100.5 83.7694C107.586 83.7694 114.461 85.1589 120.936 87.8971C127.189 90.5422 132.802 94.3271 137.622 99.145C142.442 103.965 146.227 109.578 148.87 115.831C151.608 122.306 152.998 129.183 152.998 136.267C152.998 140.47 152.498 144.657 151.513 148.707C150.902 151.241 148.636 152.941 146.141 152.941Z" fill="white"/>
<path d="M100.5 94.8447C96.2111 94.8447 92.047 94.0024 88.1259 92.3449C84.3388 90.7443 80.9399 88.4534 78.0224 85.5358C75.1048 82.6183 72.8139 79.2194 71.2132 75.4322C69.5535 71.5089 68.7134 67.3471 68.7134 63.0582C68.7134 58.3492 69.7215 53.8129 71.7082 49.5762C73.0069 46.8062 76.3036 45.6142 79.0736 46.9129C81.8435 48.2116 83.0355 51.5083 81.7368 54.2783C80.4449 57.0324 79.791 59.9863 79.791 63.0582C79.791 68.5913 81.9457 73.793 85.8577 77.705C89.7698 81.617 94.9714 83.7717 100.505 83.7717C103.563 83.7717 106.042 86.251 106.042 89.3093C106.04 92.3654 103.561 94.8447 100.5 94.8447Z" fill="white"/>
<path d="M100.5 115.558C93.414 115.558 86.539 114.169 80.0636 111.431C73.8108 108.785 68.1982 105.001 63.378 100.183C58.5578 95.3625 54.7729 89.7499 52.1301 83.497C49.3919 77.0216 48.0024 70.1444 48.0024 63.0605C48.0024 58.8579 48.5019 54.6712 49.4873 50.6207C50.2093 47.6486 53.204 45.8254 56.1761 46.5474C59.1481 47.2694 60.9713 50.2642 60.2493 53.2362C59.4728 56.4308 59.0777 59.7366 59.0777 63.0605C59.0777 68.655 60.1721 74.0791 62.3313 79.1831C64.4179 84.1146 67.4058 88.5465 71.2111 92.3518C75.0164 96.1571 79.4483 99.1451 84.3798 101.232C89.4838 103.391 94.908 104.485 100.502 104.485C103.561 104.485 106.04 106.965 106.04 110.023C106.04 113.081 103.561 115.558 100.5 115.558Z" fill="white"/>
<path d="M76.7237 152.941C74.6416 152.941 72.6482 151.763 71.7059 149.754C69.7193 145.517 68.7112 140.981 68.7112 136.272C68.7112 131.983 69.5535 127.819 71.211 123.898C72.8116 120.11 75.1025 116.712 78.0201 113.794C80.9376 110.876 84.3365 108.586 88.1237 106.985C92.047 105.325 96.2088 104.485 100.498 104.485C103.556 104.485 106.035 106.964 106.035 110.023C106.035 113.081 103.556 115.56 100.498 115.56C94.9646 115.56 89.763 117.715 85.8509 121.627C81.9389 125.539 79.7843 130.741 79.7843 136.274C79.7843 139.346 80.4381 142.3 81.73 145.054C83.0287 147.824 81.8368 151.12 79.0668 152.419C78.313 152.771 77.5115 152.941 76.7237 152.941Z" fill="white"/>
<path d="M54.8613 152.941C52.3661 152.941 50.1002 151.243 49.4849 148.709C48.4995 144.659 48 140.474 48 136.269C48 129.183 49.3895 122.308 52.1277 115.833C54.7728 109.58 58.5577 103.967 63.3756 99.1473C68.1958 94.3271 73.8084 90.5422 80.0613 87.8994C86.5366 85.1612 93.4139 83.7717 100.498 83.7717C103.556 83.7717 106.035 86.251 106.035 89.3093C106.035 92.3677 103.556 94.847 100.498 94.847C94.9033 94.847 89.4792 95.9414 84.3751 98.1006C79.4437 100.187 75.0117 103.175 71.2064 106.98C67.4011 110.786 64.4132 115.218 62.3266 120.149C60.1674 125.253 59.0731 130.677 59.0731 136.272C59.0731 139.596 59.4659 142.899 60.2424 146.096C60.9644 149.068 59.1412 152.063 56.1691 152.785C55.7355 152.889 55.295 152.941 54.8613 152.941Z" fill="white"/>
<defs>
<radialGradient id="paint0_radial_1_61" cx="0" cy="0" r="1" gradientUnits="userSpaceOnUse" gradientTransform="translate(100 100) rotate(90) scale(100)">
<stop offset="0.427083" stop-color="#363636"/>
<stop offset="1"/>
</radialGradient>
</defs>
</svg>
