<svg width="257" height="53" viewBox="0 0 257 53" fill="none" xmlns="http://www.w3.org/2000/svg">
<path d="M36.5 16.6986C38.9007 16.6986 40.8468 14.7809 40.8468 12.4153C40.8468 10.0497 38.9007 8.13196 36.5 8.13196C34.0993 8.13196 32.1532 10.0497 32.1532 12.4153C32.1532 14.7809 34.0993 16.6986 36.5 16.6986Z" fill="white"/>
<path d="M36.5 44.8681C38.9007 44.8681 40.8468 42.9504 40.8468 40.5848C40.8468 38.2192 38.9007 36.3015 36.5 36.3015C34.0993 36.3015 32.1532 38.2192 32.1532 40.5848C32.1532 42.9504 34.0993 44.8681 36.5 44.8681Z" fill="white"/>
<path fill-rule="evenodd" clip-rule="evenodd" d="M36.5342 24.6458C36.5228 24.646 36.5114 24.646 36.5 24.646C34.8253 24.646 33.1993 24.3219 31.6682 23.6842C30.1895 23.0683 28.8623 22.1868 27.723 21.0642C26.5838 19.9416 25.6893 18.6338 25.0642 17.1767C24.4162 15.6671 24.0881 14.0657 24.0881 12.4155C24.0881 10.6036 24.4818 8.85813 25.2575 7.22797C25.7646 6.16216 27.0519 5.70352 28.1335 6.20322C29.2151 6.70293 29.6806 7.97141 29.1735 9.03722C28.669 10.0969 28.4137 11.2335 28.4137 12.4155C28.4137 14.5445 29.255 16.5459 30.7826 18.0511C32.2951 19.5416 34.3015 20.3691 36.4383 20.3852C36.4588 20.3846 36.4794 20.3843 36.5 20.3843C38.6606 20.3843 40.6917 19.5553 42.2192 18.0501C43.7468 16.5448 44.5881 14.5434 44.5881 12.4144C44.5881 11.2324 44.3328 10.0958 43.8283 9.03613C43.3212 7.97033 43.7867 6.70184 44.8683 6.20214C45.9499 5.70243 47.2372 6.16108 47.7443 7.22688C48.52 8.85704 48.9137 10.6025 48.9137 12.4144C48.9137 14.0646 48.5847 15.6668 47.9376 17.1756C47.3125 18.6319 46.418 19.9406 45.2788 21.0631C44.1395 22.1857 42.8123 23.0672 41.3335 23.6831C39.8111 24.3182 38.1969 24.6414 36.5342 24.6458Z" fill="white"/>
<path fill-rule="evenodd" clip-rule="evenodd" d="M36.5328 32.6157C36.5219 32.6159 36.5109 32.616 36.5 32.616C33.733 32.616 31.0485 32.0813 28.52 31.0278C26.0784 30.01 23.8868 28.5537 22.0047 26.6999C20.1225 24.8452 18.6446 22.6856 17.6126 20.2797C16.5434 17.7882 16.0009 15.142 16.0009 12.4163C16.0009 10.7993 16.1959 9.18834 16.5807 7.62981C16.8626 6.48626 18.032 5.78475 19.1925 6.06256C20.353 6.34036 21.0649 7.49266 20.783 8.63622C20.4798 9.86539 20.3255 11.1374 20.3255 12.4163C20.3255 14.5689 20.7528 16.656 21.596 18.6199C22.4107 20.5173 23.5774 22.2226 25.0633 23.6868C26.5492 25.151 28.2798 26.3006 30.2054 27.1035C32.1782 27.9259 34.2734 28.3468 36.4345 28.3553C36.4562 28.3546 36.4781 28.3543 36.5 28.3543C38.6845 28.3543 40.8025 27.9332 42.7955 27.1024C44.7211 26.2996 46.4516 25.1499 47.9375 23.6857C49.4234 22.2215 50.5901 20.5162 51.4049 18.6188C52.248 16.6549 52.6753 14.5678 52.6753 12.4152C52.6753 11.1363 52.5219 9.86517 52.2178 8.63513C51.9359 7.49157 52.6478 6.33928 53.8083 6.06147C54.9689 5.78366 56.1382 6.48517 56.4202 7.62873C56.8049 9.18725 57 10.7973 57 12.4152C57 15.1418 56.4574 17.7871 55.3882 20.2786C54.3554 22.6846 52.8774 24.8441 50.9962 26.6988C49.114 28.5535 46.9224 30.0098 44.4808 31.0267C41.9615 32.0769 39.2882 32.6115 36.5328 32.6157Z" fill="white"/>
<path fill-rule="evenodd" clip-rule="evenodd" d="M44.8674 46.7979C45.1644 46.9351 45.4765 46.9997 45.7841 46.9997C46.5971 46.9997 47.3764 46.5455 47.7417 45.7723C48.5174 44.1422 48.911 42.3967 48.911 40.5848C48.911 38.9346 48.583 37.3332 47.9349 35.8236C47.3099 34.3664 46.4154 33.0586 45.2761 31.9361C44.1369 30.8135 42.8097 29.932 41.3309 29.3161C39.7998 28.6784 38.1739 28.3542 36.4992 28.3542C36.4735 28.3542 36.4479 28.3547 36.4225 28.3556C34.7749 28.3653 33.176 28.6883 31.6674 29.3172C30.1886 29.9331 28.8614 30.8146 27.7222 31.9371C26.583 33.0597 25.6884 34.3675 25.0634 35.8247C24.4162 37.3334 24.0873 38.9356 24.0873 40.5859C24.0873 42.3978 24.4809 44.1433 25.2567 45.7734C25.6246 46.5466 26.403 47 27.216 47C27.5236 47 27.8366 46.9344 28.1309 46.799C29.2125 46.2993 29.6779 45.0308 29.1708 43.965C28.6664 42.9053 28.411 41.7688 28.411 40.5868C28.411 38.4578 29.2524 36.4563 30.7799 34.9511C32.3075 33.4459 34.3386 32.6168 36.4992 32.6168C36.5199 32.6168 36.5406 32.6165 36.5612 32.616C38.6986 32.6317 40.7055 33.4592 42.2184 34.95C43.7459 36.4552 44.5873 38.4567 44.5873 40.5857C44.5873 41.7677 44.3319 42.9043 43.8275 43.9639C43.3204 45.0297 43.7858 46.2982 44.8674 46.7979Z" fill="white"/>
<path fill-rule="evenodd" clip-rule="evenodd" d="M53.8093 46.9387C53.9804 46.9798 54.1524 46.9999 54.3217 46.9999C55.296 46.9999 56.1808 46.3455 56.4193 45.3706C56.8041 43.812 56.9991 42.2011 56.9991 40.5841C56.9991 37.8584 56.4565 35.2122 55.3873 32.7207C54.3554 30.3147 52.8775 28.1552 50.9953 26.3005C49.1131 24.4467 46.9215 22.9904 44.4799 21.9726C41.9515 20.9191 39.267 20.3844 36.5 20.3844C36.4753 20.3844 36.4508 20.3848 36.4263 20.3856C33.6859 20.3949 31.0255 20.9294 28.5192 21.9737C26.0776 22.9906 23.886 24.4469 22.0038 26.3016C20.1225 28.1563 18.6446 30.3158 17.6118 32.7218C16.5426 35.2133 16 37.8586 16 40.5851C16 42.2031 16.195 43.8131 16.5798 45.3717C16.8201 46.3466 17.7049 47.0001 18.6792 47.0001C18.8485 47.0001 19.0205 46.98 19.1899 46.9398C20.3504 46.662 21.0623 45.5097 20.7803 44.3661C20.4771 43.1361 20.3238 41.865 20.3238 40.586C20.3238 38.4334 20.7511 36.3464 21.5942 34.3825C22.409 32.485 23.5757 30.7797 25.0616 29.3155C26.5474 27.8514 28.278 26.7017 30.2036 25.8989C32.1966 25.068 34.3146 24.647 36.4991 24.647C36.5211 24.647 36.543 24.6466 36.5648 24.646C38.7264 24.6542 40.8222 25.0752 42.7955 25.8978C44.7211 26.7006 46.4517 27.8503 47.9375 29.3145C49.4234 30.7786 50.5901 32.4839 51.4049 34.3814C52.248 36.3453 52.6753 38.4323 52.6753 40.5849C52.6753 41.8639 52.522 43.1359 52.2188 44.365C51.9368 45.5086 52.6487 46.6609 53.8093 46.9387Z" fill="white"/>
<path d="M90.352 39.01C89.68 39.01 89.14 38.734 88.732 38.182L80.416 27.238L83.692 23.89L92.296 35.266C92.632 35.722 92.8 36.214 92.8 36.742C92.8 37.414 92.548 37.966 92.044 38.398C91.54 38.806 90.976 39.01 90.352 39.01ZM90.784 13.63C91.36 13.63 91.828 13.87 92.188 14.35C92.572 14.806 92.764 15.274 92.764 15.754C92.764 16.258 92.548 16.726 92.116 17.158L77.032 31.594L76.852 26.446L89.02 14.458C89.572 13.906 90.16 13.63 90.784 13.63ZM75.232 39.01C74.56 39.01 74.02 38.806 73.612 38.398C73.204 37.966 73 37.438 73 36.814V16.006C73 15.382 73.216 14.866 73.648 14.458C74.08 14.026 74.632 13.81 75.304 13.81C75.976 13.81 76.504 14.026 76.888 14.458C77.296 14.866 77.5 15.382 77.5 16.006V36.814C77.5 37.438 77.296 37.966 76.888 38.398C76.48 38.806 75.928 39.01 75.232 39.01Z" fill="white"/>
<path d="M101.09 36.814C101.09 37.438 100.862 37.966 100.406 38.398C99.9498 38.806 99.4218 39.01 98.8218 39.01C98.1498 39.01 97.6098 38.806 97.2018 38.398C96.7938 37.966 96.5898 37.438 96.5898 36.814V16.006C96.5898 15.382 96.8058 14.866 97.2378 14.458C97.6698 14.026 98.2218 13.81 98.8938 13.81C99.4698 13.81 99.9738 14.026 100.406 14.458C100.862 14.866 101.09 15.382 101.09 16.006V36.814Z" fill="white"/>
<path d="M125.62 13.81C126.196 13.81 126.664 14.002 127.024 14.386C127.384 14.77 127.564 15.25 127.564 15.826V36.814C127.564 37.438 127.348 37.966 126.916 38.398C126.508 38.806 125.992 39.01 125.368 39.01C125.056 39.01 124.732 38.962 124.396 38.866C124.084 38.746 123.844 38.59 123.676 38.398L109.528 20.434L110.464 19.858V36.994C110.464 37.57 110.272 38.05 109.888 38.434C109.528 38.818 109.048 39.01 108.448 39.01C107.872 39.01 107.404 38.818 107.044 38.434C106.684 38.05 106.504 37.57 106.504 36.994V16.006C106.504 15.382 106.708 14.866 107.116 14.458C107.548 14.026 108.076 13.81 108.7 13.81C109.036 13.81 109.384 13.882 109.744 14.026C110.104 14.146 110.368 14.338 110.536 14.602L124.252 32.098L123.64 32.53V15.826C123.64 15.25 123.82 14.77 124.18 14.386C124.54 14.002 125.02 13.81 125.62 13.81Z" fill="white"/>
<path d="M135.173 13.81H147.233C147.857 13.81 148.373 14.014 148.781 14.422C149.213 14.806 149.429 15.31 149.429 15.934C149.429 16.534 149.213 17.026 148.781 17.41C148.373 17.77 147.857 17.95 147.233 17.95H137.153L137.477 17.338V24.358L137.189 24.07H145.613C146.237 24.07 146.753 24.274 147.161 24.682C147.593 25.066 147.809 25.57 147.809 26.194C147.809 26.794 147.593 27.286 147.161 27.67C146.753 28.03 146.237 28.21 145.613 28.21H137.297L137.477 27.922V35.194L137.189 34.87H147.233C147.857 34.87 148.373 35.086 148.781 35.518C149.213 35.926 149.429 36.406 149.429 36.958C149.429 37.558 149.213 38.05 148.781 38.434C148.373 38.818 147.857 39.01 147.233 39.01H135.173C134.549 39.01 134.021 38.806 133.589 38.398C133.181 37.966 132.977 37.438 132.977 36.814V16.006C132.977 15.382 133.181 14.866 133.589 14.458C134.021 14.026 134.549 13.81 135.173 13.81Z" fill="white"/>
<path d="M171.218 15.034C171.842 15.346 172.202 15.838 172.298 16.51C172.418 17.182 172.25 17.794 171.794 18.346C171.482 18.778 171.074 19.018 170.57 19.066C170.09 19.114 169.598 19.018 169.094 18.778C168.518 18.514 167.906 18.31 167.258 18.166C166.634 18.022 165.974 17.95 165.278 17.95C163.982 17.95 162.818 18.154 161.786 18.562C160.778 18.97 159.914 19.558 159.194 20.326C158.474 21.07 157.922 21.958 157.538 22.99C157.178 24.022 156.998 25.162 156.998 26.41C156.998 27.874 157.202 29.146 157.61 30.226C158.042 31.306 158.63 32.206 159.374 32.926C160.118 33.646 160.994 34.186 162.002 34.546C163.01 34.882 164.102 35.05 165.278 35.05C165.926 35.05 166.574 34.99 167.222 34.87C167.87 34.75 168.494 34.534 169.094 34.222C169.598 33.982 170.09 33.898 170.57 33.97C171.074 34.042 171.494 34.294 171.83 34.726C172.31 35.326 172.478 35.95 172.334 36.598C172.214 37.222 171.854 37.678 171.254 37.966C170.63 38.278 169.982 38.542 169.31 38.758C168.662 38.95 168.002 39.094 167.33 39.19C166.658 39.31 165.974 39.37 165.278 39.37C163.55 39.37 161.906 39.094 160.346 38.542C158.81 37.99 157.43 37.174 156.206 36.094C155.006 35.014 154.058 33.67 153.362 32.062C152.666 30.43 152.318 28.546 152.318 26.41C152.318 24.562 152.63 22.858 153.254 21.298C153.902 19.738 154.802 18.394 155.954 17.266C157.13 16.114 158.51 15.226 160.094 14.602C161.678 13.954 163.406 13.63 165.278 13.63C166.334 13.63 167.366 13.75 168.374 13.99C169.382 14.23 170.33 14.578 171.218 15.034Z" fill="white"/>
<path d="M184.68 39.01C184.008 39.01 183.456 38.806 183.024 38.398C182.592 37.966 182.376 37.438 182.376 36.814V15.934H187.056V36.814C187.056 37.438 186.828 37.966 186.372 38.398C185.94 38.806 185.376 39.01 184.68 39.01ZM176.724 17.95C176.1 17.95 175.572 17.758 175.14 17.374C174.732 16.99 174.528 16.486 174.528 15.862C174.528 15.238 174.732 14.746 175.14 14.386C175.572 14.002 176.1 13.81 176.724 13.81H192.708C193.332 13.81 193.848 14.002 194.256 14.386C194.688 14.77 194.904 15.274 194.904 15.898C194.904 16.522 194.688 17.026 194.256 17.41C193.848 17.77 193.332 17.95 192.708 17.95H176.724Z" fill="white"/>
<path d="M200.88 13.81H212.94C213.564 13.81 214.08 14.014 214.488 14.422C214.92 14.806 215.136 15.31 215.136 15.934C215.136 16.534 214.92 17.026 214.488 17.41C214.08 17.77 213.564 17.95 212.94 17.95H202.86L203.184 17.338V24.358L202.896 24.07H211.32C211.944 24.07 212.46 24.274 212.868 24.682C213.3 25.066 213.516 25.57 213.516 26.194C213.516 26.794 213.3 27.286 212.868 27.67C212.46 28.03 211.944 28.21 211.32 28.21H203.004L203.184 27.922V35.194L202.896 34.87H212.94C213.564 34.87 214.08 35.086 214.488 35.518C214.92 35.926 215.136 36.406 215.136 36.958C215.136 37.558 214.92 38.05 214.488 38.434C214.08 38.818 213.564 39.01 212.94 39.01H200.88C200.256 39.01 199.728 38.806 199.296 38.398C198.888 37.966 198.684 37.438 198.684 36.814V16.006C198.684 15.382 198.888 14.866 199.296 14.458C199.728 14.026 200.256 13.81 200.88 13.81Z" fill="white"/>
<path d="M221.877 39.01C221.205 39.01 220.605 38.806 220.077 38.398C219.549 37.966 219.285 37.438 219.285 36.814V16.006C219.285 15.382 219.489 14.866 219.897 14.458C220.329 14.026 220.857 13.81 221.481 13.81H231.849C233.097 13.81 234.261 14.146 235.341 14.818C236.445 15.466 237.333 16.378 238.005 17.554C238.677 18.706 239.013 20.038 239.013 21.55C239.013 22.462 238.821 23.35 238.437 24.214C238.077 25.078 237.573 25.858 236.925 26.554C236.301 27.25 235.593 27.79 234.801 28.174L234.837 27.346C235.509 27.706 236.061 28.138 236.493 28.642C236.949 29.122 237.297 29.65 237.537 30.226C237.801 30.778 237.957 31.378 238.005 32.026C238.101 32.626 238.161 33.154 238.185 33.61C238.233 34.066 238.305 34.45 238.401 34.762C238.521 35.074 238.737 35.314 239.049 35.482C239.577 35.794 239.901 36.25 240.021 36.85C240.165 37.426 240.033 37.942 239.625 38.398C239.361 38.71 239.025 38.914 238.617 39.01C238.209 39.082 237.801 39.082 237.393 39.01C236.985 38.914 236.649 38.794 236.385 38.65C235.977 38.41 235.569 38.062 235.161 37.606C234.753 37.126 234.417 36.49 234.153 35.698C233.913 34.906 233.793 33.886 233.793 32.638C233.793 32.23 233.721 31.858 233.577 31.522C233.433 31.162 233.229 30.862 232.965 30.622C232.701 30.358 232.365 30.166 231.957 30.046C231.549 29.902 231.069 29.83 230.517 29.83H223.245L223.785 29.002V36.814C223.785 37.438 223.617 37.966 223.281 38.398C222.945 38.806 222.477 39.01 221.877 39.01ZM223.281 26.122H231.669C232.101 26.122 232.521 25.93 232.929 25.546C233.337 25.138 233.673 24.598 233.937 23.926C234.201 23.23 234.333 22.474 234.333 21.658C234.333 20.602 234.045 19.726 233.469 19.03C232.917 18.31 232.317 17.95 231.669 17.95H223.353L223.785 16.798V26.986L223.281 26.122Z" fill="white"/>
</svg>
